<?xml version="1.0" standalone="no"?>
<!DOCTYPE svg PUBLIC "-//W3C//DTD SVG 20010904//EN"
 "http://www.w3.org/TR/2001/REC-SVG-20010904/DTD/svg10.dtd">
<svg version="1.0" xmlns="http://www.w3.org/2000/svg"
 width="1554.000000pt" height="379.000000pt" viewBox="0 0 1554.000000 379.000000"
 preserveAspectRatio="xMidYMid meet">
<metadata>
Created by potrace 1.15, written by Peter Selinger 2001-2017
</metadata>
<g transform="translate(0.000000,379.000000) scale(0.100000,-0.100000)"
fill="#000000" stroke="none">
<path d="M9595 3770 c4 -11 2 -20 -4 -20 -24 0 -5 -62 64 -215 33 -73 82 -257
91 -342 5 -50 3 -69 -14 -105 -12 -23 -22 -50 -24 -58 -2 -8 -8 -19 -15 -25
-7 -5 -19 -32 -28 -60 -20 -61 -37 -75 -79 -68 -20 3 -45 -1 -64 -11 -27 -14
-32 -22 -32 -51 0 -30 6 -38 39 -59 22 -14 42 -34 46 -46 4 -11 23 -29 44 -39
65 -33 80 -108 36 -174 -14 -20 -33 -37 -41 -37 -8 0 -14 -7 -12 -17 2 -10
-11 -26 -32 -40 -46 -32 -46 -55 3 -67 32 -8 37 -13 37 -38 0 -33 10 -35 83
-12 38 13 69 34 117 80 123 118 162 154 171 154 5 0 9 6 9 14 0 8 12 29 27 46
22 27 25 35 15 51 -19 31 -14 44 24 62 24 12 47 15 70 11 36 -7 56 -25 36 -32
-15 -5 -16 -42 -2 -42 6 0 23 11 37 24 18 17 24 31 20 45 -6 25 27 66 58 72
20 4 29 20 61 96 9 23 25 50 35 59 25 22 24 46 -2 70 -30 27 -128 24 -165 -5
-27 -21 -64 -28 -64 -13 0 5 -18 18 -39 31 -22 12 -53 35 -68 51 -15 17 -36
30 -47 30 -15 0 -17 5 -11 28 4 15 9 58 11 97 2 38 8 71 14 73 16 6 12 29 -7
36 -9 4 -20 1 -25 -6 -5 -9 -8 -7 -8 8 0 12 -10 25 -25 32 -35 16 -37 15 -35
-10 5 -63 -1 -139 -11 -133 -6 4 -8 27 -6 52 4 42 2 46 -24 55 -25 8 -27 12
-18 34 14 39 11 70 -12 109 -17 28 -19 38 -9 50 15 18 18 113 4 123 -5 4 -9
17 -9 30 0 12 -2 21 -5 20 -3 -2 -19 11 -36 28 -18 18 -57 40 -92 53 -79 27
-95 27 -87 1z"/>
<path d="M1040 3120 c0 -209 -2 -380 -5 -380 -17 0 -693 -61 -705 -63 -8 -2
46 -7 120 -11 313 -17 447 -34 801 -100 74 -14 165 -28 202 -32 l67 -7 0 317
0 317 288 -3 287 -3 66 -31 c74 -35 128 -84 161 -147 20 -36 23 -57 23 -152 0
-105 -2 -114 -33 -177 -18 -37 -47 -79 -65 -94 -72 -61 -216 -103 -356 -104
-41 0 -61 -4 -55 -9 17 -18 519 -241 540 -241 28 0 125 71 208 153 111 109
176 288 176 489 0 310 -136 497 -435 597 -164 54 -249 61 -794 61 l-491 0 0
-380z"/>
<path d="M3412 2865 c-271 -59 -402 -280 -402 -682 0 -197 34 -350 100 -453
43 -67 131 -147 193 -175 77 -36 164 -45 440 -45 l247 0 0 124 0 125 -262 3
-263 3 -47 28 c-72 42 -118 141 -118 252 l0 35 345 0 345 0 0 125 0 125 -345
0 c-391 0 -355 -10 -331 91 19 83 58 144 114 176 l47 28 255 5 255 5 3 123 3
122 -258 -1 c-178 0 -278 -5 -321 -14z"/>
<path d="M4330 2195 l0 -685 131 0 131 0 -3 503 -4 504 169 -341 c92 -188 203
-414 246 -503 l79 -163 150 0 151 0 0 685 0 685 -133 0 -132 0 2 -172 c2 -95
4 -310 6 -477 l3 -304 -236 476 -235 476 -162 1 -163 0 0 -685z"/>
<path d="M5620 2755 l0 -125 190 0 190 0 0 -560 0 -560 135 0 135 0 0 560 0
560 190 0 190 0 0 125 0 125 -515 0 -515 0 0 -125z"/>
<path d="M6900 2195 l0 -685 130 0 130 0 0 270 0 270 138 0 139 0 132 -270
131 -270 146 0 c80 0 144 3 142 8 -1 4 -65 126 -140 272 -75 146 -138 270
-140 277 -2 6 22 24 52 40 66 35 120 102 147 182 13 42 18 87 18 181 0 144
-16 207 -70 282 -39 53 -126 102 -214 118 -29 5 -208 10 -397 10 l-344 0 0
-685z m695 410 c95 -48 102 -213 12 -279 -26 -19 -45 -21 -238 -24 l-209 -3 0
166 0 167 198 -4 c173 -3 202 -5 237 -23z"/>
<path d="M10500 2195 l0 -685 154 0 153 0 -4 503 -5 502 285 -500 285 -500
171 -3 171 -2 0 685 0 685 -151 0 -151 0 7 -477 6 -478 -272 478 -273 477
-188 0 -188 0 0 -685z"/>
<path d="M12140 2195 l0 -685 155 0 155 0 0 685 0 685 -155 0 -155 0 0 -685z"/>
<path d="M13259 2864 c-186 -33 -312 -122 -384 -269 -109 -220 -112 -579 -8
-793 44 -91 125 -175 212 -221 115 -61 133 -63 504 -68 l337 -5 0 125 0 126
-297 3 c-298 3 -298 3 -354 29 -94 44 -132 113 -150 274 -12 113 1 271 31 369
16 51 33 81 67 117 73 78 93 82 421 87 l282 3 0 120 0 119 -292 -1 c-202 -1
-317 -5 -369 -15z"/>
<path d="M14568 2870 c-175 -30 -271 -108 -313 -254 -25 -87 -18 -281 14 -351
40 -90 114 -149 226 -180 47 -13 121 -18 335 -21 304 -6 349 -13 374 -63 26
-50 30 -99 11 -148 -15 -38 -25 -49 -64 -67 -44 -20 -62 -21 -453 -24 l-408
-3 0 -125 0 -124 423 0 c456 1 530 7 630 53 144 66 211 224 187 439 -18 159
-85 244 -225 288 -26 8 -147 15 -350 19 -263 5 -315 9 -341 23 -48 26 -68 64
-68 129 1 72 25 113 84 142 44 21 55 22 443 25 l397 3 0 125 0 124 -427 -1
c-236 -1 -449 -5 -475 -9z"/>
<path d="M9225 2595 c-48 -17 -71 -43 -85 -95 -12 -43 -69 -96 -110 -102 -19
-2 -28 -13 -40 -48 -22 -66 -120 -167 -196 -201 -33 -15 -66 -35 -73 -43 -8
-9 -18 -16 -24 -16 -11 0 -101 -40 -162 -72 -23 -12 -55 -21 -74 -19 -38 2
-67 -17 -178 -119 -13 -11 -30 -20 -38 -20 -18 0 -92 -73 -100 -100 -4 -11
-10 -20 -15 -20 -5 0 -11 -8 -14 -18 -3 -9 -16 -22 -28 -27 -18 -8 -23 -20
-26 -58 -3 -40 0 -53 18 -70 27 -25 130 -51 130 -34 1 7 11 0 23 -14 12 -15
35 -29 51 -33 22 -5 27 -11 23 -27 -4 -15 1 -23 20 -30 13 -5 29 -6 34 -3 6 3
18 -1 28 -10 40 -36 133 -28 180 14 17 16 39 31 50 35 11 3 23 15 26 25 4 14
17 20 48 22 42 3 42 3 39 38 -2 26 2 41 17 54 12 11 21 26 21 35 0 8 16 31 35
51 25 25 37 50 44 85 11 58 27 73 107 100 32 10 62 24 66 29 4 6 26 3 58 -7
29 -9 61 -17 71 -17 32 0 34 28 5 55 -14 13 -26 30 -26 37 1 23 44 66 82 81
22 9 47 32 64 56 15 23 31 41 36 41 6 0 41 30 79 67 69 67 70 67 63 110 -5 34
-3 43 8 43 8 0 22 8 32 19 20 22 9 61 -23 83 -19 13 -19 16 -5 37 9 12 13 25
9 29 -4 4 -10 1 -12 -5 -3 -7 -11 -13 -19 -13 -8 0 -14 -4 -14 -8 0 -15 -37
-52 -52 -52 -8 0 -23 -7 -34 -15 -37 -28 -47 -20 -40 38 6 48 5 53 -16 62 -30
13 -29 36 2 52 l25 13 -25 -1 c-14 0 -43 -6 -65 -14z"/>
<path d="M40 2451 c25 -5 95 -14 155 -20 315 -34 744 -134 843 -197 l22 -14 0
-600 0 -600 230 0 230 0 0 515 0 515 53 -26 c187 -95 358 -222 527 -393 165
-166 321 -373 430 -568 l24 -43 6493 0 6493 0 0 75 0 75 -6268 0 -6269 0 -28
53 c-113 208 -274 412 -442 559 -421 367 -922 569 -1623 654 -144 17 -959 31
-870 15z"/>
<path d="M3692 688 c-26 -69 -232 -667 -232 -672 0 -3 22 -6 50 -6 l49 0 21
70 21 70 107 0 108 0 18 -70 18 -70 50 0 c49 0 50 0 43 27 -3 16 -52 172 -109
348 -105 323 -123 361 -144 303z m60 -325 l34 -128 -74 -3 c-41 -2 -76 -1 -79
2 -6 6 70 256 78 256 3 0 22 -57 41 -127z"/>
<path d="M4038 703 l-28 -4 0 -345 0 -344 45 0 45 0 0 130 0 130 53 0 c105 0
173 38 208 115 22 49 25 161 5 208 -17 42 -66 83 -114 97 -43 12 -174 20 -214
13z m192 -111 c46 -23 62 -55 57 -116 -5 -61 -43 -100 -106 -111 -79 -13 -81
-10 -81 126 l0 119 48 0 c26 0 63 -8 82 -18z"/>
<path d="M4498 703 l-28 -4 0 -345 0 -344 45 0 45 0 0 129 0 128 73 5 c141 9
207 80 207 220 0 105 -31 159 -112 192 -38 16 -181 28 -230 19z m200 -113 c40
-25 55 -61 49 -120 -6 -55 -46 -95 -106 -105 -79 -13 -81 -10 -81 126 l0 119
53 0 c34 0 63 -7 85 -20z"/>
<path d="M5756 701 c-8 -13 -236 -672 -236 -682 0 -5 22 -9 49 -9 l48 0 19 68
20 67 109 0 109 0 20 -67 19 -68 48 0 c27 0 49 3 49 7 0 5 -71 229 -201 631
-19 57 -39 77 -53 53z m53 -336 c17 -61 31 -116 31 -123 0 -13 -150 -18 -150
-4 -2 22 76 259 81 249 4 -7 21 -62 38 -122z"/>
<path d="M6720 688 c-54 -27 -100 -87 -131 -165 -29 -76 -32 -240 -7 -323 43
-138 131 -207 253 -198 66 6 150 44 162 74 5 13 -33 84 -45 84 -4 0 -13 -9
-19 -19 -7 -10 -32 -26 -56 -36 -121 -46 -217 64 -217 250 0 96 23 168 69 217
32 34 45 41 87 45 33 3 63 0 88 -11 48 -20 45 -20 55 7 24 64 24 64 -19 81
-61 24 -165 21 -220 -6z"/>
<path d="M7808 703 l-28 -4 0 -345 0 -344 45 0 45 0 0 151 0 151 38 -7 c20 -3
42 -12 47 -19 6 -8 42 -73 80 -145 l70 -131 53 0 54 0 -45 83 c-25 45 -63 115
-85 156 l-40 74 31 21 c86 59 104 225 33 304 -38 43 -75 55 -176 58 -52 1
-107 0 -122 -3z m202 -108 c56 -29 61 -145 7 -179 -29 -19 -90 -30 -122 -22
-25 6 -25 8 -25 111 l0 105 55 0 c31 0 69 -7 85 -15z"/>
<path d="M9805 698 c-24 -62 -235 -674 -235 -680 0 -4 22 -8 49 -8 l49 0 21
70 22 70 107 0 108 0 18 -70 18 -70 49 0 c27 0 49 4 49 8 0 4 -9 35 -19 68
-11 32 -61 186 -111 342 -65 201 -95 282 -106 282 -8 0 -17 -6 -19 -12z m56
-335 l36 -128 -75 -3 c-41 -2 -77 -1 -79 2 -6 6 69 256 76 256 4 0 22 -57 42
-127z"/>
<path d="M10804 691 c-52 -32 -78 -85 -78 -161 0 -101 29 -143 141 -206 77
-43 103 -74 103 -126 0 -50 -13 -74 -51 -94 -35 -18 -76 -12 -127 17 -18 10
-35 19 -36 19 -2 0 -9 -20 -16 -45 -15 -54 -6 -70 49 -85 108 -30 214 9 258
94 18 35 20 137 3 181 -16 43 -56 81 -125 120 -100 56 -128 103 -101 169 21
50 83 63 146 31 37 -19 39 -19 49 8 25 65 24 67 -13 82 -52 22 -163 20 -202
-4z"/>
<path d="M11178 703 l-28 -4 0 -345 0 -344 45 0 45 0 0 129 0 128 73 5 c128 8
186 57 208 172 21 114 -17 198 -106 237 -42 19 -183 32 -237 22z m192 -108
c41 -21 60 -53 60 -102 0 -78 -30 -113 -112 -128 -20 -4 -46 -4 -57 0 -20 6
-21 13 -21 126 l0 119 50 0 c28 0 64 -7 80 -15z"/>
<path d="M12183 689 c-114 -56 -177 -225 -153 -411 11 -92 34 -149 81 -203 70
-79 181 -98 279 -48 72 37 79 51 50 97 l-22 37 -22 -20 c-65 -61 -146 -61
-207 0 -111 111 -84 399 43 465 36 19 129 14 154 -7 9 -7 18 -8 23 -3 14 16
32 77 24 85 -40 34 -187 39 -250 8z"/>
<path d="M12950 684 c-27 -71 -230 -658 -230 -666 0 -4 22 -8 49 -8 l48 0 20
67 20 68 109 0 108 0 20 -67 19 -68 48 0 c27 0 49 3 49 7 0 5 -11 42 -24 83
-14 41 -64 195 -111 343 -88 272 -103 301 -125 241z m61 -324 l36 -130 -78 0
c-44 0 -79 3 -79 8 0 17 74 252 79 252 4 0 22 -58 42 -130z"/>
<path d="M13972 693 c-18 -9 -41 -28 -52 -43 -23 -33 -42 -111 -35 -145 3 -14
7 -36 10 -50 7 -35 61 -93 109 -117 104 -52 147 -110 126 -173 -6 -18 -20 -41
-31 -51 -28 -26 -96 -23 -144 4 -20 12 -38 22 -39 22 -2 0 -9 -21 -16 -46 -15
-52 -8 -64 49 -83 154 -51 297 62 275 217 -13 90 -37 117 -181 202 -60 35 -82
101 -53 155 22 41 83 49 140 20 40 -21 47 -19 53 13 3 15 9 35 12 45 17 41
-153 65 -223 30z"/>
<path d="M4930 355 l0 -345 175 0 175 0 0 45 0 45 -130 0 -130 0 0 300 0 300
-45 0 -45 0 0 -345z"/>
<path d="M5360 355 l0 -345 45 0 45 0 0 345 0 345 -45 0 -45 0 0 -345z"/>
<path d="M6060 355 l0 -345 45 0 45 0 0 237 0 238 148 -242 c101 -166 153
-243 165 -243 16 0 17 23 17 350 l0 350 -45 0 -45 0 -2 -221 -3 -222 -139 222
c-117 184 -144 221 -163 221 l-23 0 0 -345z"/>
<path d="M7080 355 l0 -345 180 0 180 0 0 45 0 45 -130 0 -130 0 0 120 0 120
95 0 95 0 0 45 0 45 -95 0 -95 0 0 90 0 90 135 0 135 0 0 45 0 45 -185 0 -185
0 0 -345z"/>
<path d="M8260 355 l0 -345 180 0 180 0 0 45 0 45 -135 0 -135 0 0 120 0 120
95 0 95 0 0 45 0 45 -95 0 -95 0 0 90 0 90 135 0 135 0 0 45 0 45 -180 0 -180
0 0 -345z"/>
<path d="M8700 355 l0 -345 45 0 45 0 2 231 3 232 144 -237 c104 -170 150
-236 163 -236 17 0 18 17 18 350 l0 350 -45 0 -45 0 -2 -223 -3 -224 -140 223
c-114 183 -144 224 -162 224 l-23 0 0 -345z"/>
<path d="M9170 655 l0 -45 95 0 95 0 0 -300 0 -300 45 0 45 0 0 300 0 300 100
0 100 0 0 45 0 45 -240 0 -240 0 0 -45z"/>
<path d="M10110 355 l0 -345 180 0 180 0 0 45 0 45 -135 0 -135 0 0 300 0 300
-45 0 -45 0 0 -345z"/>
<path d="M11610 355 l0 -345 180 0 180 0 0 45 0 45 -135 0 -135 0 0 120 0 120
100 0 100 0 0 45 0 45 -100 0 -100 0 0 90 0 90 135 0 135 0 0 45 0 45 -180 0
-180 0 0 -345z"/>
<path d="M12560 355 l0 -345 45 0 45 0 0 345 0 345 -45 0 -45 0 0 -345z"/>
<path d="M13260 355 l0 -345 180 0 180 0 0 45 0 45 -135 0 -135 0 0 300 0 300
-45 0 -45 0 0 -345z"/>
<path d="M13700 355 l0 -345 45 0 45 0 0 345 0 345 -45 0 -45 0 0 -345z"/>
<path d="M14260 655 l0 -45 90 0 90 0 0 -300 0 -300 50 0 50 0 0 300 0 300 95
0 95 0 0 45 0 45 -235 0 -235 0 0 -45z"/>
</g>
</svg>
